<?xml version="1.0"?>
<svg width="18" height="20" xmlns="http://www.w3.org/2000/svg" xmlns:svg="http://www.w3.org/2000/svg">
 <g>
  <title>Layer 1</title>
  <g stroke="null" id="svg_1">
   <path stroke="null" id="svg_2" d="m7.79177,8.2581c-1.98466,0 -3.59243,1.60827 -3.59243,3.59243c0,1.98464 1.60777,3.59244 3.59243,3.59244c1.98563,0 3.59238,-1.60778 3.59238,-3.59244c0,-1.98416 -1.60675,-3.59243 -3.59238,-3.59243z" fill="#686868"/>
   <path stroke="null" id="svg_3" d="m13.38784,11.33732c-0.24755,-2.69931 -2.38055,-4.83332 -5.08287,-5.07941l0,-2.10541l-1.02641,0l0,2.10544c-2.70231,0.24607 -4.83531,2.38007 -5.0829,5.07939l-2.10192,0l0,1.02641l2.10192,0c0.2476,2.69833 2.38059,4.83231 5.08293,5.07989l0,2.10492l1.02641,0l0,-2.10492c2.7023,-0.24756 4.83531,-2.38157 5.08287,-5.07989l2.10194,0l0,-1.02641l-2.10196,0l0,0l-0.00001,0l0,-0.00001l0,0l0,0zm-5.59607,5.13199c-2.54997,0 -4.61883,-2.06882 -4.61883,-4.61879c0,-2.55049 2.06886,-4.61883 4.61883,-4.61883c2.55093,0 4.61877,2.06836 4.61877,4.61883c0,2.54999 -2.06784,4.61879 -4.61877,4.61879z" fill="#686868"/>
  </g>
 </g>
</svg>