<?xml version="1.0" encoding="utf-8"?>
<!-- Generator: Adobe Illustrator 15.0.0, SVG Export Plug-In . SVG Version: 6.00 Build 0)  -->
<!DOCTYPE svg PUBLIC "-//W3C//DTD SVG 1.1//EN" "http://www.w3.org/Graphics/SVG/1.1/DTD/svg11.dtd">
<svg version="1.1" xmlns="http://www.w3.org/2000/svg" xmlns:xlink="http://www.w3.org/1999/xlink" x="0px" y="0px"
	 width="1955.492px" height="1596px" viewBox="283.008 -45.5 1955.492 1596" enable-background="new 283.008 -45.5 1955.492 1596"
	 xml:space="preserve">
<g id="Layer_2">
	<g opacity="0.1">
		<path id="svg_1_1_" fill="#454545" d="M2190.523,968.49c-53.777-184.769-323.492-268.716-602.47-187.515
			c-119.756,34.855-221.776,94.518-294.908,165.856c-88.844,86.615-148.406,234.687-558.837,380.113
			c-24.492,7.128-73.158,32.211-58.54,82.43c14.61,50.199,69.445,46.16,93.897,39.044c424.365-97.551,553.861-5.487,675.272,19.929
			c99.964,20.985,218.086,16.546,337.854-18.314C2061.764,1368.835,2244.289,1153.208,2190.523,968.49L2190.523,968.49z"/>
		<path id="svg_2_3_" fill="#FFFFFF" d="M1489.576,1175.616"/>
	</g>
</g>
<g id="Layer_1" display="none">
	<g display="inline">
		<title>Layer 1</title>
		<path id="svg_1" fill="#FF7F00" d="M750,49.768c-257.93,0-466.992,209.062-466.992,466.992
			c0,110.72,38.567,212.476,102.981,292.507c78.19,97.216,246.438,184.716,279.854,570.619c0,22.645,14.05,70.347,84.156,70.347
			c70.076,0,85.418-47.741,85.418-70.347c33.416-385.903,200.402-473.438,278.593-570.619
			c64.449-79.997,102.981-181.778,102.981-292.507C1216.992,258.834,1007.86,49.768,750,49.768L750,49.768z M742.702,668.434
			c-83.405,0-150.993-67.618-150.993-151.028c0-83.375,67.583-150.994,150.993-150.994c83.405,0,151.028,67.623,151.028,150.999
			C893.73,600.854,826.112,668.434,742.702,668.434z"/>
		<circle id="svg_2" fill="#FFFFFF" cx="754" cy="520" r="178.599"/>
	</g>
</g>
</svg>
