<?xml version="1.0" encoding="utf-8"?>
<!-- Generator: Adobe Illustrator 15.0.0, SVG Export Plug-In . SVG Version: 6.00 Build 0)  -->
<!DOCTYPE svg PUBLIC "-//W3C//DTD SVG 1.1//EN" "http://www.w3.org/Graphics/SVG/1.1/DTD/svg11.dtd">
<svg version="1.1" id="Layer_1" xmlns="http://www.w3.org/2000/svg" xmlns:xlink="http://www.w3.org/1999/xlink" x="0px" y="0px"
	 width="443.974px" height="665.714px" viewBox="18.008 0 443.974 665.714" enable-background="new 18.008 0 443.974 665.714"
	 xml:space="preserve">
<g>
	<title>Layer 1</title>
	<path id="svg_1" fill="#FF7F00" d="M239.994,0C117.387,0,18.008,99.378,18.008,221.986c0,52.63,18.333,101,48.953,139.042
		c37.167,46.213,124.275,87.805,140.16,271.246c0,10.764-0.452,33.439,32.874,33.439c33.311,0,33.473-22.693,33.473-33.439
		c15.884-183.441,102.393-225.049,139.561-271.246c30.636-38.026,48.953-86.408,48.953-139.042C461.979,99.379,362.568,0,239.994,0z
		 M236.524,294.084c-39.647,0-71.775-32.142-71.775-71.792c0-39.632,32.126-71.775,71.775-71.775
		c39.646,0,71.792,32.145,71.792,71.777C308.316,261.96,276.173,294.084,236.524,294.084z"/>
	<circle id="svg_2" fill="#FFFFFF" cx="241.895" cy="223.525" r="84.897"/>
</g>
</svg>
