<?xml version="1.0" encoding="utf-8"?>
<!-- Generator: Adobe Illustrator 15.0.0, SVG Export Plug-In . SVG Version: 6.00 Build 0)  -->
<!DOCTYPE svg PUBLIC "-//W3C//DTD SVG 1.1//EN" "http://www.w3.org/Graphics/SVG/1.1/DTD/svg11.dtd">
<svg version="1.1" id="Layer_1" xmlns="http://www.w3.org/2000/svg" xmlns:xlink="http://www.w3.org/1999/xlink" x="0px" y="0px"
	 width="14px" height="20px" viewBox="0 -0.941 14 20" enable-background="new 0 -0.941 14 20" xml:space="preserve">
<g>
	<title>Layer 1</title>
	<path id="svg_1" fill="#FF7F00" d="M7.229,2.979c-2.947,0-5.337,2.388-5.337,5.336c0,1.264,0.441,2.427,1.177,3.343
		c0.894,1.108,2.988,2.111,3.37,6.52c0,0.26-0.011,0.805,0.791,0.805c0.801,0,0.803-0.544,0.803-0.805
		c0.384-4.408,2.463-5.409,3.355-6.52c0.739-0.916,1.18-2.079,1.18-3.343C12.564,5.368,10.174,2.979,7.229,2.979z M7.144,10.048
		c-0.952,0-1.726-0.772-1.726-1.726c0-0.953,0.774-1.725,1.726-1.725c0.954,0,1.725,0.772,1.725,1.725
		C8.869,9.277,8.098,10.048,7.144,10.048z"/>
	<circle id="svg_2" fill="#FFFFFF" cx="7.273" cy="8.352" r="2.042"/>
</g>
</svg>
