<?xml version="1.0" encoding="utf-8"?>
<!-- Generator: Adobe Illustrator 15.0.0, SVG Export Plug-In . SVG Version: 6.00 Build 0)  -->
<!DOCTYPE svg PUBLIC "-//W3C//DTD SVG 1.1//EN" "http://www.w3.org/Graphics/SVG/1.1/DTD/svg11.dtd">
<svg version="1.1" id="Layer_1" xmlns="http://www.w3.org/2000/svg" xmlns:xlink="http://www.w3.org/1999/xlink" x="0px" y="0px"
	 width="13.5px" height="18.202px" viewBox="0.298 67.083 13.5 18.202" enable-background="new 0.298 67.083 13.5 18.202"
	 xml:space="preserve">
<path fill="#4C4C4C" d="M7.048,71.786c1.225,0,2.354,0.301,3.388,0.905c1.033,0.604,1.853,1.423,2.457,2.457
	c0.603,1.034,0.905,2.164,0.905,3.388s-0.302,2.354-0.905,3.388c-0.604,1.034-1.424,1.853-2.457,2.457
	c-1.034,0.603-2.164,0.905-3.388,0.905s-2.354-0.302-3.388-0.905c-1.034-0.604-1.853-1.423-2.457-2.457
	c-0.604-1.034-0.905-2.164-0.905-3.388s0.301-2.354,0.905-3.388c0.604-1.034,1.423-1.853,2.457-2.457
	C4.694,72.087,5.823,71.786,7.048,71.786L7.048,71.786z M9.456,76.364c-0.011,0.007-0.039,0.034-0.083,0.084
	c-0.044,0.05-0.084,0.078-0.119,0.083c0.011,0,0.024-0.015,0.039-0.044c0.015-0.029,0.029-0.061,0.043-0.096
	c0.016-0.036,0.025-0.056,0.031-0.063c0.035-0.041,0.1-0.084,0.193-0.132c0.082-0.035,0.234-0.069,0.458-0.105
	c0.199-0.047,0.348-0.015,0.447,0.097c-0.011-0.012,0.017-0.05,0.084-0.114s0.11-0.1,0.128-0.106
	c0.017-0.011,0.061-0.024,0.131-0.039c0.07-0.014,0.114-0.037,0.132-0.066l0.018-0.193c-0.071,0.005-0.121-0.015-0.154-0.062
	c-0.032-0.047-0.051-0.109-0.057-0.185c0,0.012-0.018,0.036-0.053,0.071c0-0.042-0.013-0.065-0.039-0.071
	c-0.027-0.006-0.061-0.003-0.102,0.008c-0.042,0.012-0.067,0.015-0.079,0.01c-0.059-0.018-0.103-0.041-0.132-0.066
	c-0.029-0.027-0.053-0.076-0.07-0.145c-0.018-0.071-0.029-0.115-0.035-0.132c-0.012-0.03-0.04-0.06-0.084-0.092
	c-0.043-0.033-0.071-0.063-0.083-0.093c-0.006-0.012-0.013-0.027-0.022-0.048c-0.008-0.021-0.018-0.04-0.027-0.057
	c-0.008-0.018-0.02-0.034-0.035-0.049c-0.015-0.014-0.031-0.021-0.048-0.021c-0.018,0-0.039,0.015-0.063,0.044
	c-0.023,0.029-0.045,0.059-0.066,0.088c-0.02,0.029-0.034,0.044-0.039,0.044c-0.018-0.012-0.035-0.016-0.053-0.013
	s-0.031,0.006-0.04,0.009c-0.008,0.002-0.021,0.012-0.039,0.026c-0.018,0.015-0.032,0.025-0.043,0.031
	c-0.018,0.011-0.043,0.021-0.076,0.026C9.489,75,9.465,75.005,9.447,75.011c0.087-0.029,0.085-0.062-0.008-0.097
	c-0.059-0.023-0.106-0.032-0.141-0.026c0.053-0.024,0.075-0.059,0.066-0.106c-0.009-0.047-0.034-0.088-0.075-0.123h0.044
	c-0.006-0.024-0.031-0.048-0.075-0.074c-0.043-0.027-0.095-0.052-0.153-0.075c-0.059-0.024-0.097-0.041-0.114-0.053
	c-0.046-0.029-0.146-0.057-0.299-0.083c-0.151-0.026-0.249-0.028-0.29-0.004c-0.029,0.035-0.043,0.066-0.04,0.092
	c0.003,0.026,0.016,0.067,0.035,0.124c0.021,0.055,0.031,0.092,0.031,0.109c0.006,0.035-0.01,0.073-0.048,0.115
	c-0.038,0.041-0.057,0.076-0.057,0.105c0,0.041,0.042,0.086,0.123,0.136s0.111,0.113,0.088,0.189
	c-0.018,0.047-0.064,0.094-0.141,0.14c-0.077,0.048-0.123,0.083-0.141,0.106c-0.029,0.046-0.034,0.101-0.013,0.163
	c0.021,0.061,0.052,0.11,0.092,0.145c0.011,0.011,0.016,0.024,0.014,0.035c-0.003,0.012-0.014,0.025-0.031,0.039
	c-0.019,0.016-0.034,0.027-0.048,0.036c-0.016,0.008-0.034,0.018-0.058,0.03l-0.026,0.018c-0.065,0.03-0.125,0.012-0.18-0.053
	c-0.056-0.064-0.096-0.14-0.119-0.229c-0.042-0.146-0.088-0.234-0.142-0.264c-0.135-0.047-0.219-0.043-0.254,0.008
	c-0.029-0.076-0.149-0.151-0.36-0.228c-0.146-0.053-0.317-0.065-0.51-0.035c0.036-0.006,0.036-0.05,0-0.132
	c-0.04-0.088-0.096-0.124-0.166-0.106c0.017-0.036,0.029-0.086,0.035-0.154c0.005-0.067,0.008-0.106,0.008-0.118
	c0.018-0.077,0.053-0.143,0.105-0.203c0.006-0.006,0.026-0.03,0.062-0.074c0.035-0.043,0.063-0.083,0.083-0.119
	c0.021-0.035,0.022-0.053,0.004-0.053c0.206,0.024,0.352-0.008,0.439-0.096c0.03-0.029,0.063-0.079,0.102-0.149
	c0.039-0.07,0.069-0.12,0.093-0.15c0.052-0.035,0.093-0.05,0.123-0.048s0.072,0.019,0.127,0.048c0.056,0.03,0.098,0.044,0.127,0.044
	c0.082,0.005,0.127-0.026,0.136-0.097c0.009-0.07-0.013-0.128-0.066-0.175c0.071,0.005,0.079-0.044,0.026-0.15
	c-0.029-0.041-0.052-0.067-0.07-0.079c-0.07-0.023-0.149-0.009-0.237,0.044c-0.047,0.024-0.041,0.047,0.018,0.07
	C7.56,73.45,7.532,73.48,7.483,73.548c-0.05,0.068-0.098,0.119-0.145,0.154c-0.047,0.035-0.094,0.02-0.141-0.044
	c-0.006-0.006-0.022-0.045-0.048-0.118c-0.027-0.074-0.054-0.113-0.083-0.119c-0.046,0-0.093,0.044-0.141,0.132
	c0.018-0.047-0.015-0.091-0.096-0.132c-0.083-0.041-0.152-0.064-0.212-0.07c0.112-0.07,0.088-0.15-0.07-0.237
	c-0.041-0.024-0.101-0.039-0.18-0.045c-0.079-0.005-0.137,0.006-0.172,0.036c-0.029,0.041-0.045,0.074-0.048,0.101
	c-0.002,0.026,0.012,0.05,0.044,0.07c0.032,0.021,0.063,0.037,0.092,0.048c0.029,0.012,0.063,0.023,0.102,0.036
	c0.038,0.012,0.063,0.02,0.074,0.026c0.082,0.059,0.106,0.1,0.07,0.123c-0.011,0.006-0.037,0.016-0.075,0.032
	c-0.038,0.014-0.072,0.027-0.101,0.039c-0.03,0.012-0.047,0.024-0.053,0.035c-0.018,0.023-0.018,0.064,0,0.123
	s0.011,0.1-0.018,0.124c-0.029-0.03-0.055-0.081-0.079-0.155c-0.024-0.073-0.044-0.122-0.061-0.145
	c0.041,0.053-0.033,0.07-0.22,0.053l-0.088-0.009c-0.023,0-0.071,0.006-0.141,0.017c-0.07,0.012-0.13,0.015-0.18,0.009
	s-0.089-0.029-0.119-0.07c-0.023-0.047-0.023-0.106,0-0.176c0.006-0.023,0.018-0.029,0.036-0.018
	c-0.023-0.018-0.055-0.045-0.097-0.083c-0.041-0.038-0.071-0.063-0.087-0.075c-0.27,0.087-0.545,0.208-0.827,0.361
	c0.035,0.005,0.07,0.002,0.105-0.009c0.029-0.011,0.068-0.031,0.115-0.057c0.046-0.027,0.076-0.043,0.087-0.049
	c0.199-0.082,0.322-0.102,0.369-0.061l0.044-0.044c0.082,0.094,0.141,0.167,0.175,0.22c-0.041-0.024-0.128-0.027-0.264-0.009
	c-0.116,0.035-0.182,0.07-0.193,0.106c0.041,0.07,0.056,0.123,0.044,0.158c-0.024-0.018-0.058-0.047-0.102-0.088
	c-0.044-0.041-0.086-0.073-0.127-0.097c-0.041-0.022-0.085-0.037-0.132-0.043c-0.094,0-0.158,0.003-0.193,0.009
	c-0.856,0.469-1.545,1.119-2.066,1.951c0.042,0.041,0.076,0.064,0.106,0.071c0.023,0.005,0.038,0.031,0.043,0.079
	c0.005,0.046,0.013,0.079,0.022,0.096c0.008,0.018,0.042,0.009,0.101-0.026c0.052,0.047,0.061,0.103,0.026,0.167
	c0.006-0.006,0.135,0.074,0.387,0.238c0.111,0.099,0.173,0.161,0.185,0.184c0.018,0.064-0.011,0.118-0.088,0.159
	c-0.006-0.012-0.032-0.039-0.079-0.08c-0.047-0.041-0.073-0.052-0.079-0.035c-0.018,0.03-0.016,0.084,0.005,0.163
	c0.02,0.079,0.05,0.116,0.092,0.11c-0.042,0-0.069,0.046-0.083,0.14c-0.015,0.093-0.022,0.198-0.022,0.312s-0.002,0.183-0.008,0.206
	l0.018,0.009c-0.018,0.071-0.001,0.171,0.048,0.303s0.113,0.189,0.189,0.171c-0.076,0.018-0.018,0.144,0.176,0.377
	c0.035,0.047,0.058,0.074,0.069,0.079c0.018,0.012,0.053,0.034,0.106,0.066c0.052,0.033,0.097,0.062,0.132,0.088
	c0.035,0.027,0.064,0.058,0.087,0.093c0.024,0.029,0.053,0.095,0.088,0.198c0.035,0.102,0.076,0.171,0.124,0.206
	c-0.012,0.035,0.016,0.094,0.083,0.176c0.067,0.082,0.099,0.149,0.092,0.202c-0.005,0-0.013,0.003-0.021,0.009
	s-0.016,0.009-0.022,0.009c0.017,0.041,0.063,0.082,0.136,0.123c0.073,0.041,0.119,0.079,0.136,0.114
	c0.006,0.018,0.012,0.047,0.019,0.087c0.005,0.042,0.014,0.074,0.026,0.097c0.011,0.023,0.035,0.03,0.07,0.018
	c0.012-0.118-0.059-0.299-0.211-0.545c-0.087-0.146-0.137-0.231-0.148-0.255c-0.018-0.029-0.034-0.074-0.049-0.136
	c-0.014-0.061-0.027-0.104-0.039-0.127c0.012,0,0.029,0.004,0.053,0.013c0.023,0.009,0.048,0.019,0.074,0.031
	c0.027,0.011,0.049,0.024,0.066,0.035c0.018,0.012,0.023,0.021,0.018,0.026C4.191,78.85,4.198,78.9,4.227,78.962
	c0.029,0.062,0.064,0.116,0.105,0.163c0.042,0.047,0.091,0.102,0.15,0.167c0.059,0.064,0.093,0.102,0.105,0.114
	c0.035,0.035,0.076,0.092,0.123,0.171c0.047,0.079,0.047,0.119,0,0.119c0.053,0,0.112,0.029,0.176,0.087
	c0.065,0.059,0.115,0.118,0.15,0.176c0.029,0.047,0.052,0.123,0.07,0.229c0.018,0.105,0.032,0.175,0.044,0.211
	c0.012,0.041,0.036,0.08,0.075,0.119c0.038,0.037,0.075,0.066,0.11,0.083l0.14,0.071c0,0,0.039,0.021,0.115,0.061
	c0.029,0.012,0.083,0.043,0.162,0.092c0.079,0.05,0.143,0.084,0.189,0.101c0.059,0.024,0.105,0.036,0.14,0.036
	c0.036,0,0.078-0.008,0.128-0.021c0.049-0.016,0.089-0.025,0.118-0.031c0.088-0.012,0.173,0.032,0.255,0.132
	c0.083,0.101,0.144,0.161,0.185,0.185c0.211,0.111,0.373,0.144,0.484,0.097c-0.012,0.006-0.011,0.028,0.003,0.066
	c0.016,0.039,0.039,0.083,0.071,0.137c0.032,0.052,0.059,0.095,0.079,0.127s0.037,0.057,0.048,0.075
	c0.029,0.035,0.083,0.079,0.158,0.132c0.077,0.053,0.129,0.096,0.159,0.132c0.036-0.024,0.056-0.05,0.062-0.079
	c-0.018,0.047,0.003,0.105,0.062,0.176c0.058,0.07,0.111,0.1,0.158,0.088c0.082-0.018,0.123-0.111,0.123-0.281
	c-0.182,0.088-0.325,0.035-0.431-0.158c0-0.006-0.007-0.022-0.021-0.048c-0.014-0.026-0.026-0.051-0.035-0.075
	c-0.009-0.023-0.016-0.048-0.022-0.074c-0.006-0.027-0.006-0.048,0-0.066c0.006-0.018,0.021-0.027,0.044-0.027
	c0.053,0,0.082-0.01,0.088-0.03c0.006-0.021,0-0.058-0.018-0.11s-0.029-0.091-0.036-0.115c-0.005-0.047-0.037-0.104-0.097-0.175
	C7.587,80.943,7.551,80.9,7.54,80.882c-0.029,0.053-0.076,0.076-0.141,0.071c-0.063-0.006-0.111-0.033-0.14-0.079
	c0,0.005-0.005,0.021-0.013,0.048c-0.009,0.026-0.013,0.045-0.013,0.057c-0.077,0-0.12-0.003-0.132-0.008
	c0.006-0.018,0.013-0.069,0.021-0.154c0.009-0.085,0.02-0.15,0.031-0.197c0.006-0.023,0.022-0.059,0.048-0.106
	c0.027-0.047,0.049-0.09,0.066-0.127c0.019-0.039,0.03-0.075,0.035-0.11c0.006-0.035-0.006-0.063-0.039-0.084
	c-0.033-0.02-0.084-0.027-0.155-0.021c-0.111,0.006-0.187,0.064-0.229,0.176c-0.006,0.018-0.015,0.048-0.026,0.092
	c-0.012,0.045-0.026,0.079-0.044,0.102c-0.017,0.024-0.044,0.044-0.079,0.061c-0.041,0.019-0.111,0.024-0.211,0.019
	c-0.1-0.006-0.17-0.021-0.211-0.044c-0.076-0.047-0.142-0.132-0.198-0.254c-0.055-0.124-0.084-0.231-0.084-0.326
	c0-0.059,0.007-0.136,0.022-0.232c0.015-0.097,0.023-0.17,0.027-0.22c0.002-0.049-0.014-0.121-0.049-0.215
	c0.018-0.012,0.044-0.04,0.08-0.083c0.035-0.045,0.064-0.075,0.087-0.093c0.012-0.006,0.026-0.01,0.04-0.013
	c0.015-0.003,0.028-0.003,0.04,0c0.012,0.003,0.023-0.001,0.035-0.013c0.011-0.011,0.021-0.03,0.026-0.053
	c-0.006-0.006-0.018-0.015-0.035-0.026c-0.018-0.018-0.029-0.027-0.035-0.027c0.042,0.018,0.124,0.013,0.25-0.013
	c0.126-0.026,0.207-0.022,0.242,0.013c0.087,0.065,0.152,0.059,0.193-0.017c0-0.006-0.008-0.034-0.022-0.084
	c-0.015-0.049-0.017-0.089-0.005-0.119c0.03,0.158,0.115,0.185,0.255,0.079c0.018,0.018,0.063,0.032,0.137,0.043
	c0.073,0.013,0.125,0.027,0.153,0.044c0.018,0.012,0.038,0.029,0.061,0.049c0.024,0.02,0.04,0.034,0.049,0.039
	c0.008,0.006,0.023,0.004,0.043-0.004c0.021-0.009,0.046-0.028,0.075-0.057c0.059,0.082,0.094,0.152,0.106,0.211
	c0.063,0.234,0.12,0.364,0.167,0.387c0.041,0.018,0.073,0.024,0.097,0.018c0.023-0.005,0.036-0.033,0.039-0.083s0.003-0.091,0-0.123
	C8.104,79.37,8.1,79.333,8.094,79.292l-0.009-0.071v-0.158l-0.008-0.07c-0.088-0.018-0.143-0.053-0.163-0.106
	c-0.021-0.052-0.016-0.106,0.013-0.162c0.029-0.056,0.073-0.11,0.132-0.163c0.006-0.006,0.029-0.016,0.07-0.032
	c0.041-0.014,0.087-0.034,0.137-0.056c0.049-0.024,0.086-0.047,0.109-0.071c0.124-0.111,0.167-0.214,0.132-0.308
	c0.042,0,0.074-0.026,0.097-0.079c-0.005,0-0.02-0.009-0.044-0.027c-0.023-0.017-0.045-0.032-0.066-0.043
	c-0.02-0.012-0.034-0.018-0.039-0.018c0.052-0.029,0.058-0.076,0.017-0.141c0.03-0.018,0.052-0.05,0.065-0.097
	c0.015-0.047,0.037-0.077,0.066-0.088c0.053,0.07,0.114,0.076,0.185,0.018c0.041-0.047,0.044-0.094,0.009-0.141
	c0.029-0.041,0.089-0.072,0.181-0.092c0.09-0.021,0.145-0.049,0.163-0.084c0.04,0.012,0.064,0.006,0.07-0.017
	c0.005-0.024,0.008-0.059,0.008-0.106c0-0.046,0.008-0.082,0.026-0.105c0.024-0.03,0.067-0.056,0.132-0.079
	c0.064-0.024,0.103-0.039,0.114-0.044l0.149-0.097c0.018-0.024,0.018-0.035,0-0.035c0.105,0.011,0.196-0.021,0.272-0.097
	c0.06-0.064,0.042-0.123-0.052-0.176c0.017-0.035,0.008-0.063-0.027-0.083c-0.036-0.021-0.079-0.037-0.132-0.048
	c0.018-0.006,0.051-0.008,0.101-0.004c0.05,0.003,0.081-0.001,0.092-0.013c0.088-0.059,0.067-0.105-0.062-0.14
	C9.734,76.229,9.608,76.265,9.456,76.364L9.456,76.364z M8.023,84.073c1.207-0.211,2.235-0.765,3.085-1.661
	c-0.018-0.019-0.054-0.031-0.11-0.04s-0.093-0.019-0.11-0.03c-0.105-0.042-0.175-0.064-0.21-0.071
	c0.005-0.042-0.002-0.079-0.022-0.114c-0.021-0.035-0.044-0.062-0.071-0.079c-0.026-0.018-0.063-0.041-0.11-0.07
	c-0.047-0.029-0.08-0.05-0.096-0.062c-0.013-0.011-0.033-0.03-0.062-0.053c-0.03-0.024-0.05-0.04-0.062-0.048
	c-0.012-0.008-0.034-0.021-0.066-0.04c-0.032-0.018-0.057-0.023-0.074-0.018c-0.018,0.006-0.047,0.009-0.088,0.009l-0.026,0.009
	c-0.018,0.006-0.034,0.013-0.048,0.022c-0.014,0.009-0.031,0.018-0.048,0.026c-0.018,0.009-0.03,0.018-0.035,0.027
	c-0.005,0.009-0.005,0.016,0,0.022c-0.124-0.1-0.229-0.164-0.316-0.194c-0.03-0.005-0.062-0.021-0.097-0.048
	c-0.035-0.026-0.066-0.047-0.092-0.062c-0.027-0.015-0.056-0.019-0.088-0.013c-0.032,0.006-0.065,0.026-0.101,0.062
	c-0.03,0.029-0.047,0.073-0.053,0.132c-0.006,0.059-0.012,0.096-0.018,0.114c-0.041-0.029-0.041-0.081,0-0.154
	c0.041-0.073,0.047-0.128,0.018-0.163c-0.018-0.035-0.049-0.047-0.093-0.039c-0.043,0.008-0.079,0.022-0.105,0.039
	c-0.026,0.018-0.06,0.043-0.101,0.075c-0.041,0.032-0.067,0.052-0.079,0.057c-0.011,0.006-0.037,0.022-0.075,0.049
	c-0.038,0.026-0.063,0.048-0.074,0.066c-0.018,0.023-0.036,0.059-0.053,0.105c-0.017,0.047-0.032,0.079-0.043,0.097
	c-0.012-0.024-0.045-0.043-0.102-0.057c-0.055-0.016-0.083-0.031-0.083-0.049c0.012,0.059,0.023,0.162,0.034,0.308
	c0.012,0.146,0.026,0.258,0.044,0.334c0.041,0.182,0.006,0.322-0.105,0.421c-0.158,0.147-0.243,0.264-0.254,0.352
	c-0.024,0.129,0.011,0.205,0.105,0.229c0,0.041-0.024,0.101-0.07,0.18C8.021,83.822,8,83.886,8.005,83.932
	C8.005,83.967,8.012,84.014,8.023,84.073L8.023,84.073z"/>
</svg>
